<svg width="488" height="88" viewBox="0 0 488 88" fill="none" xmlns="http://www.w3.org/2000/svg">
<g clip-path="url(#clip0)">
<rect opacity="0.1" x="-704" width="1922" height="88" fill="#00C7FF"/>
<g opacity="0.6">
<mask id="path-2-inside-1" fill="white">
<path fill-rule="evenodd" clip-rule="evenodd" d="M1218 88H-685.362L-704 72.7599L-704 0"/>
</mask>
<path d="M-685.362 88L-685.995 88.7741L-685.719 89H-685.362V88ZM-704 72.7599H-705V73.2339L-704.633 73.534L-704 72.7599ZM1218 87H-685.362V89H1218V87ZM-684.729 87.2259L-703.367 71.9858L-704.633 73.534L-685.995 88.7741L-684.729 87.2259ZM-703 72.7599V0L-705 0V72.7599H-703Z" fill="#00C7FF" mask="url(#path-2-inside-1)"/>
</g>
<g opacity="0.6">
<mask id="path-4-inside-2" fill="white">
<path fill-rule="evenodd" clip-rule="evenodd" d="M-680 0L1197.22 0L1216 15.5105V87.7787"/>
</mask>
<path d="M1197.22 0L1197.85 -0.771075L1197.58 -1H1197.22V0ZM1216 15.5105H1217V15.0394L1216.64 14.7395L1216 15.5105ZM-680 1H1197.22V-1H-680V1ZM1196.58 0.771075L1215.36 16.2816L1216.64 14.7395L1197.85 -0.771075L1196.58 0.771075ZM1215 15.5105V87.7787H1217V15.5105H1215Z" fill="#00C7FF" mask="url(#path-4-inside-2)"/>
</g>
<path fill-rule="evenodd" clip-rule="evenodd" d="M0 0H488V76H358.609L353.028 69.3913H133.965L128.449 76H0V0Z" fill="url(#paint0_linear)"/>
<path fill-rule="evenodd" clip-rule="evenodd" d="M0 0L8 0V87H5.53209L5.45617 79.4348H3.01993L2.94489 87H0V0Z" fill="url(#paint1_linear)"/>
<path d="M0.5 0.5H1.5V86.5H0.5V0.5Z" stroke="#00C7FF"/>
<path fill-rule="evenodd" clip-rule="evenodd" d="M488 0L480 0V87H482.468L482.544 79.4348H484.98L485.055 87H488V0Z" fill="url(#paint2_linear)"/>
<path d="M487.5 0.5H486.5V86.5H487.5V0.5Z" stroke="#00C7FF"/>
<path opacity="0.2" d="M-243.468 81.5402H141.75L148.636 74.6538H338.75L345.636 81.5402H734" stroke="#00C7FF"/>
<path d="M81.7498 81.5402H141.75L148.636 74.6538H338.75L345.636 81.5402H443.452" stroke="#00C7FF" stroke-width="2"/>
<path fill-rule="evenodd" clip-rule="evenodd" d="M16 81.5402H131.75L138.636 74.6538H348.75L355.636 81.5402H475H16Z" stroke="#00C7FF" stroke-width="2"/>
<path d="M123.875 25.8438V23.1719H128.375V25.8438H133.016V29.7812H128.375V31.1875H132.453L133.156 49.75C133.25 50.7812 133.766 51.25 134.703 51.1562H136.672C137.422 51.25 138.078 50.7812 138.641 49.75L145.812 35.8281H151.156L145.672 47.3594L147.781 50.0312C148.156 50.6875 148.625 50.9688 149.188 50.875H149.891V54.5312H147.641C146.516 54.5312 145.672 54.25 145.109 53.6875L143 51.7188L141.312 53.8281C140.844 54.3906 140 54.6719 138.781 54.6719H134.141V53.8281H132.453C130.297 53.8281 129.266 53.125 129.359 51.7188L128.516 35.2656H128.234V54.6719H123.875V35.2656H123.594L122.891 51.0156C122.891 52.7969 122 53.6875 120.219 53.6875H118.391V50.3125H118.672C119.047 50.4062 119.234 50.2656 119.234 49.8906L120.078 31.1875H123.875V29.7812H118.391V25.8438H123.875ZM133.719 24.4375H138.219V23.1719H143.562V24.4375H150.031V28.6562H141.734L138.781 33.8594H140.75L143 30.0625H147.781L138.641 46.6562C137.984 48.0625 136.953 48.6719 135.547 48.4844H133.719V44.5469H134.281C134.656 44.6406 134.984 44.4531 135.266 43.9844L138.5 37.7969H133.859V33.2969L136.531 28.5156H133.719V24.4375ZM162.391 50.875C163.609 50.9688 164.172 50.5938 164.078 49.75V23.1719H169.141V51.0156C169.234 53.7344 167.922 55.0469 165.203 54.9531H162.391V50.875ZM174.203 55.0938C171.766 55.0938 170.594 53.8281 170.688 51.2969V23.1719H175.609V50.0312C175.609 50.6875 176.031 51.0156 176.875 51.0156H186.578V55.0938H174.203ZM181.797 47.9219C179.172 48.1094 177.953 46.9844 178.141 44.5469V23.1719H183.344V42.0156C183.344 42.6719 183.766 43 184.609 43H186.578V47.9219H181.797ZM192.062 55.0938C189.625 55 188.406 53.9688 188.406 52V23.1719H193.469V49.8906C193.375 50.5469 193.75 50.8281 194.594 50.7344V55.0938H192.062ZM222.984 37.375C219.891 37.5625 218.484 36.4375 218.766 34V23.4531H223.688V25.4219H237.609V29.5H223.688V32.4531C223.594 33.1094 223.875 33.3906 224.531 33.2969H237.609V37.375H222.984ZM218.906 38.5H237.609V52C237.984 54.25 236.578 55.2812 233.391 55.0938H218.906V38.5ZM232.969 45.25V42.7188H223.688V45.25H232.969ZM223.688 51.4375H231.984C232.641 51.4375 232.969 51.1094 232.969 50.4531V49.1875H223.688V51.4375ZM211.453 25.8438V23.3125H216.375V25.8438H218.203V29.6406H216.375V31.75H218.062V35.6875H216.375V51.7188C216.188 54.0625 214.734 55.2812 212.016 55.375H206.672V51.4375H210.609C211.266 51.5312 211.594 51.1562 211.594 50.3125V45.8125L210.328 48.2031C209.859 49.0469 208.875 49.4688 207.375 49.4688H205.688V45.8125H206.672C207.047 45.7188 207.516 44.8281 208.078 43.1406L211.594 33.0156V29.9219H205.828V25.8438H211.453ZM250.812 32.3125V26.9688H256.156V23.0312H260.938V26.9688H265.578V32.3125H260.938V34.1406H264.172L266 49.1875C266.281 49.6562 266.562 49.6562 266.844 49.1875L268.109 39.2031H271.906L270.359 51.4375C269.984 53.2188 268.906 54.1094 267.125 54.1094H265.859C263.891 54.1094 262.812 53.0781 262.625 51.0156L260.938 36.1094V54.8125H256.156V35.9688L254.75 50.0312C254.469 52.6562 253.531 53.875 251.938 53.6875H250.672V49.75C251.047 49.9375 251.281 49.5625 251.375 48.625L252.922 34.1406H256.156V32.3125H250.812ZM266.422 28.2344V23.1719H283.156V28.2344H266.422ZM270.922 51.0156C271.672 51.1094 272.047 50.6875 272.047 49.75V37.6562H266.281V32.5938H283.156V37.6562H276.828V52C276.828 53.875 275.938 54.8125 274.156 54.8125H270.922V51.0156ZM281.328 53.8281C279.922 53.8281 279.125 53.1719 278.938 51.8594L277.25 39.2031H280.906L282.031 48.7656C282.125 49.6094 282.5 50.0312 283.156 50.0312V53.8281H281.328ZM294.25 22.8906H299.031V37.7969H294.25V22.8906ZM308.312 30.3438V26.2656H311.969C312.438 26.2656 312.812 25.9844 313.094 25.4219L313.938 22.8906H319L318.438 24.7188H326.031V28.7969H317.453L317.172 29.5C316.891 30.1562 316.328 30.4375 315.484 30.3438H308.312ZM302.547 37.6562V23.0312H307.328V37.6562H302.547ZM313.375 37.7969C311.594 37.9844 310.562 37.3281 310.281 35.8281L308.594 31.1875H313.938L314.641 32.875C314.734 33.4375 315.109 33.6719 315.766 33.5781H326.031V37.7969H313.375ZM325.328 39.2031V50.875H326.172V54.9531H293.969V50.875H294.672V39.2031H325.328ZM303.531 50.875V43.8438H299.594V50.875H303.531ZM307.891 50.875H311.969V43.8438H307.891V50.875ZM316.469 50.875H320.406V43.8438H316.469V50.875ZM349.781 31.0469V24.7188H357.094V23.4531H362.016V24.7188H369.75L369.328 31.0469H364.969V28.6562H354.281V31.0469H349.781ZM349.781 34H352.312C352.781 34.0938 353.203 33.8594 353.578 33.2969L354.422 31.4688H359.203L357.938 34.7031C357 36.7656 355.781 37.7031 354.281 37.5156H349.781V34ZM364.547 37.5156C362.859 37.7031 361.781 36.7656 361.312 34.7031L360.188 31.4688H365.391L366.234 33.1562C366.422 33.625 366.891 33.8594 367.641 33.8594H369.609V37.5156H364.547ZM357.234 43.4219H350.203V39.2031H369.609V43.4219H362.016V51.1562H369.609V54.9531H348.938V51.1562H357.234V43.4219ZM337.688 25.9844H342.891V23.4531H347.531V25.8438H349.078V29.7812H347.531V31.8906H348.938V35.9688H347.531V51.2969C347.531 53.9219 346.359 55.2344 344.016 55.2344H338.953V51.4375H341.625C342.469 51.5312 342.891 51.0625 342.891 50.0312V46.9375L342.469 48.2031C342.188 49.0469 341.438 49.4219 340.219 49.3281H337.688V45.25H337.969C338.625 45.3438 339 45.0156 339.094 44.2656L343.172 33.7188V29.9219H337.688V25.9844Z" fill="#00F2FF"/>
</g>
<defs>
<linearGradient id="paint0_linear" x1="488" y1="76" x2="488" y2="0" gradientUnits="userSpaceOnUse">
<stop stop-color="#00BBFF" stop-opacity="0.151863"/>
<stop offset="1" stop-color="#00BBFF" stop-opacity="0.01"/>
</linearGradient>
<linearGradient id="paint1_linear" x1="8" y1="87" x2="8" y2="0" gradientUnits="userSpaceOnUse">
<stop stop-color="#00BBFF" stop-opacity="0.698907"/>
<stop offset="1" stop-color="#00BBFF" stop-opacity="0.100034"/>
</linearGradient>
<linearGradient id="paint2_linear" x1="480" y1="87" x2="480" y2="0" gradientUnits="userSpaceOnUse">
<stop stop-color="#00BBFF" stop-opacity="0.698907"/>
<stop offset="1" stop-color="#00BBFF" stop-opacity="0.100034"/>
</linearGradient>
<clipPath id="clip0">
<rect width="488" height="88" fill="white"/>
</clipPath>
</defs>
</svg>
