<svg xmlns="http://www.w3.org/2000/svg" xmlns:xlink="http://www.w3.org/1999/xlink" fill="none" version="1.1" width="488" height="88" viewBox="0 0 488 88"><defs><clipPath id="master_svg0_1_1"><rect x="0" y="0" width="488" height="88" rx="0"/></clipPath><mask id="master_svg1_1_00" style="mask-type:alpha" maskUnits="userSpaceOnUse"><g><path d="M1218,88L-685.362,88L-704,72.7599L-704,0" fill-rule="evenodd" fill="#FFFFFF" fill-opacity="1"/></g></mask><mask id="master_svg2_1_04" style="mask-type:alpha" maskUnits="userSpaceOnUse"><g><path d="M-680,0L1197.22,0L1216,15.5105L1216,87.7787" fill-rule="evenodd" fill="#FFFFFF" fill-opacity="1"/></g></mask><linearGradient x1="1" y1="1" x2="1" y2="0" id="master_svg3_1_93"><stop offset="0%" stop-color="#00BBFF" stop-opacity="0.1518629938364029"/><stop offset="100%" stop-color="#00BBFF" stop-opacity="0.009999999776482582"/></linearGradient><linearGradient x1="1" y1="1" x2="1" y2="0" id="master_svg4_1_94"><stop offset="0%" stop-color="#00BBFF" stop-opacity="0.6989070177078247"/><stop offset="100%" stop-color="#00BBFF" stop-opacity="0.10003399848937988"/></linearGradient><linearGradient x1="0" y1="1" x2="0" y2="0" id="master_svg5_1_95"><stop offset="0%" stop-color="#00BBFF" stop-opacity="0.6989070177078247"/><stop offset="100%" stop-color="#00BBFF" stop-opacity="0.10003399848937988"/></linearGradient></defs><g clip-path="url(#master_svg0_1_1)"><g><g style="opacity:0.10000000149011612;"><rect x="-704" y="0" width="1922" height="88" rx="0" fill="#00C7FF" fill-opacity="1"/></g><g style="opacity:0.6000000238418579;"><g mask="url(#master_svg1_1_00)"><g><path d="M-685.362,88L-685.995,88.7741L-685.719,89L-685.362,89L-685.362,88ZM-704,72.7599L-705,72.7599L-705,73.2339L-704.632996,73.534L-704,72.7599ZM1218,87L-685.362,87L-685.362,89L1218,89L1218,87ZM-684.729,87.2259L-703.367,71.9858L-704.632996,73.534L-685.995,88.7741L-684.729,87.2259ZM-703,72.7599L-703,0L-705,0L-705,72.7599L-703,72.7599Z" fill="#00C7FF" fill-opacity="1"/></g></g></g><g style="opacity:0.6000000238418579;"><g mask="url(#master_svg2_1_04)"><g><path d="M1197.22,0L1197.85,-0.771075L1197.58,-1L1197.22,-1L1197.22,0ZM1216,15.5105L1217,15.5105L1217,15.0394L1216.64,14.7395L1216,15.5105ZM-680,1L1197.22,1L1197.22,-1L-680,-1L-680,1ZM1196.58,0.77108L1215.36,16.2816L1216.64,14.7395L1197.85,-0.771075L1196.58,0.77108ZM1215,15.5105L1215,87.7787L1217,87.7787L1217,15.5105L1215,15.5105Z" fill="#00C7FF" fill-opacity="1"/></g></g></g><g><path d="M0,0L488,0L488,76L358.609,76L353.028,69.3913L133.965,69.3913L128.449,76L0,76L0,0Z" fill-rule="evenodd" fill="url(#master_svg3_1_93)" fill-opacity="1"/></g><g><path d="M0,0L8,0L8,87L5.53209,87L5.45617,79.4348L3.01993,79.4348L2.94489,87L0,87L0,0Z" fill-rule="evenodd" fill="url(#master_svg4_1_94)" fill-opacity="1"/></g><g><path d="M0,0L2,0L2,87L0,87L0,0Z" fill-rule="evenodd" fill="#00C7FF" fill-opacity="1"/></g><g><path d="M488,0L480,0L480,87L482.46799,87L482.54401,79.4348L484.98001,79.4348L485.05499,87L488,87L488,0Z" fill-rule="evenodd" fill="url(#master_svg5_1_95)" fill-opacity="1"/></g><g><path d="M486,0L486,87L488,87L488,0L486,0Z" fill-rule="evenodd" fill="#00C7FF" fill-opacity="1"/></g><g style="opacity:0.20000000298023224;"><path d="M345.42898242187505,82.04020859375L733.999982421875,82.04020859375L733.999982421875,81.04020859375L345.84298242187504,81.04020859375L338.95698242187495,74.15380859375L148.428982421875,74.15380859375L141.54298242187502,81.04020859375L-243.468017578125,81.04020859375L-243.468017578125,82.04020859375L141.956982421875,82.04020859375L148.84298242187498,75.15380859375L338.54298242187497,75.15380859375L345.42898242187505,82.04020859375Z" fill-rule="evenodd" fill="#00C7FF" fill-opacity="1"/></g><g><path d="M345.22181689453123,82.54020859375L443.45181689453125,82.54020859375L443.45181689453125,80.54020859375L346.04981689453126,80.54020859375L339.16381689453124,73.65380859375L148.22181689453123,73.65380859375L141.33581689453126,80.54020859375L81.74981689453125,80.54020859375L81.74981689453125,82.54020859375L142.16421689453125,82.54020859375L149.05021689453125,75.65380859375L338.33581689453126,75.65380859375L345.22181689453123,82.54020859375Z" fill-rule="evenodd" fill="#00C7FF" fill-opacity="1"/></g><g><path d="M355.222,82.54020859375L475,82.54020859375L475,80.54020859375L356.05,80.54020859375L349.164,73.65380859375L138.22199999999998,73.65380859375L131.336,80.54020859375L16,80.54020859375L16,82.54020859375L355.222,82.54020859375ZM353.222,80.54020859375L134.164,80.54020859375L139.05,75.65380859375L348.336,75.65380859375L353.222,80.54020859375Z" fill-rule="evenodd" fill="#00C7FF" fill-opacity="1"/></g></g><g><path d="M62.716,50.7L51.196,50.7L51.196,60.744L46.480000000000004,60.744L46.480000000000004,50.7L34.708,50.7L34.708,34.212L46.480000000000004,34.212L46.480000000000004,28.344L51.196,28.524L51.196,34.212L62.716,34.212L62.716,50.7ZM46.480000000000004,46.164L46.480000000000004,38.784L39.496,38.784L39.496,46.164L46.480000000000004,46.164ZM57.964,38.784L51.196,38.784L51.196,46.164L57.964,46.164L57.964,38.784ZM103.18,46.92L90.256,46.92L90.256,55.452Q90.256,56.856,90.02199999999999,57.756Q89.788,58.656,89.194,59.196Q88.6,59.736,87.628,59.988Q86.656,60.24,85.21600000000001,60.348L81.544,60.636L80.176,56.136L83.812,55.848Q84.424,55.812,84.76599999999999,55.722Q85.108,55.632,85.288,55.452Q85.468,55.272,85.52199999999999,54.894Q85.576,54.516,85.576,53.868L85.576,46.92L72.292,46.92L72.292,42.42L85.576,42.42L85.576,39.611999999999995L93.82,34.248L75.28,34.248L75.28,29.82L101.488,29.82L101.488,34.284L90.256,41.628L90.256,42.42L103.18,42.42L103.18,46.92ZM125.536,52.896Q125.14,52.968,124.222,53.112Q123.304,53.256,122.044,53.436L122.044,60.276L117.868,60.276L117.868,54.12Q116.716,54.3,115.636,54.48Q114.556,54.66,113.638,54.822Q112.72,54.984,112,55.11Q111.28,55.236,110.92,55.308L110.74,51.024Q111.064,50.988,111.784,50.879999999999995Q112.504,50.772,113.458,50.61Q114.412,50.448,115.546,50.268Q116.68,50.088,117.868,49.872L117.868,46.488L111.676,46.488L111.676,42.275999999999996Q112.36,41.232,113.044,39.629999999999995Q113.728,38.028,114.34,36.156L111.784,36.156L111.784,31.98L115.564,31.98Q115.852,30.936,116.104,29.928Q116.356,28.92,116.572,27.948L120.784,28.451999999999998Q120.568,29.28,120.352,30.162Q120.136,31.044,119.884,31.98L125.716,31.98L125.716,36.156L118.696,36.156L118.372,37.128L122.044,37.379999999999995L122.044,42.275999999999996L125.644,42.275999999999996L125.644,46.488L122.044,46.488L122.044,49.152Q123.304,48.936,124.204,48.774Q125.104,48.611999999999995,125.5,48.54L125.5,50.052L125.536,52.896ZM142.672,44.4L138.64,44.4L138.64,60.132L134.464,60.132L134.464,44.4L130.684,44.4Q130.648,47.388000000000005,130.46800000000002,49.620000000000005Q130.288,51.852,129.838,53.724Q129.388,55.596,128.578,57.288Q127.768,58.98,126.472,60.924L122.512,58.692Q123.916,56.82,124.744,55.254Q125.572,53.688,125.968,51.888Q126.364,50.088,126.472,47.802Q126.58,45.516,126.58,42.204L126.58,30.9Q130.144,30.612000000000002,133.564,30.036Q136.98399999999998,29.46,140.11599999999999,28.596L141.304,33.096000000000004Q140.04399999999998,33.42,138.676,33.726Q137.308,34.032,135.922,34.284Q134.536,34.536,133.204,34.734Q131.872,34.932,130.684,35.076L130.684,40.007999999999996L142.672,40.007999999999996L142.672,44.4ZM118.12,37.92Q117.652,39.288,117.22,40.403999999999996Q116.788,41.519999999999996,116.392,42.275999999999996L118.12,42.275999999999996L118.12,37.92ZM179.716,61.068Q177.016,59.772,174.91,58.602Q172.804,57.432,171.112,56.208Q169.492,57.432,167.404,58.656Q165.316,59.88,162.58,61.14L160.924,57.972Q160.564,58.656,160.168,59.34Q159.772,60.024,159.304,60.78L155.596,58.548Q157,56.532,157.882,54.84Q158.764,53.148,159.25,51.276Q159.736,49.403999999999996,159.898,47.082Q160.06,44.760000000000005,160.06,41.484L160.06,32.088L168.196,32.088L168.196,28.308L172.48,28.451999999999998L172.48,32.088L180.868,32.088L180.868,36.263999999999996L178.96,40.007999999999996L175,38.928L176.476,36.372L172.48,36.372L172.48,40.944L179.032,40.944L179.032,45.084Q178.204,47.316,177.124,49.35Q176.044,51.384,174.244,53.364Q175.756,54.336,177.628,55.236Q179.5,56.136,181.948,57.144L179.716,61.068ZM157.216,37.019999999999996Q156.676,36.516,155.974,35.885999999999996Q155.272,35.256,154.51600000000002,34.626Q153.76,33.996,152.986,33.402Q152.212,32.808,151.564,32.376L154.012,28.92Q154.66,29.352,155.416,29.928Q156.172,30.503999999999998,156.964,31.116Q157.756,31.728,158.458,32.322Q159.16,32.916,159.7,33.384L157.216,37.019999999999996ZM164.164,36.372L164.164,40.944L168.196,40.944L168.196,36.372L164.164,36.372ZM155.99200000000002,45.120000000000005Q155.38,44.544,154.55200000000002,43.824Q153.724,43.104,152.86,42.402Q151.99599999999998,41.7,151.186,41.088Q150.376,40.476,149.8,40.08L152.14,36.408Q152.752,36.804,153.57999999999998,37.397999999999996Q154.40800000000002,37.992000000000004,155.272,38.64Q156.136,39.288,156.982,39.972Q157.828,40.656,158.44,41.196L155.99200000000002,45.120000000000005ZM161.644,56.604Q163.588,55.776,165.136,54.984Q166.684,54.192,167.908,53.364Q166.72,52.032,165.784,50.466Q164.848,48.9,164.092,46.92L167.404,45.228L164.128,45.228Q164.092,46.992000000000004,163.948,48.468Q163.804,49.944,163.516,51.294Q163.228,52.644,162.778,53.94Q162.328,55.236,161.644,56.604ZM171.076,50.772Q172.408,49.403999999999996,173.164,48.018Q173.92,46.632000000000005,174.46,45.228L167.908,45.228Q169.06,48.54,171.076,50.772ZM157.936,47.964Q157.54000000000002,49.367999999999995,157.072,50.897999999999996Q156.60399999999998,52.428,156.1,53.976Q155.596,55.524,155.074,57Q154.55200000000002,58.476,154.012,59.772L149.836,58.368Q150.988,55.632,151.978,52.626Q152.96800000000002,49.620000000000005,153.76,46.56L155.92000000000002,47.316L157.936,47.964ZM219.388,51.348Q219.028,51.276,218.686,51.222Q218.344,51.168,217.984,51.096L217.984,59.7L205.6,59.7L205.6,48.936L211.036,48.936Q207.544,47.352000000000004,204.916,44.832L204.52,44.832Q203.512,46.056,201.982,47.028Q200.452,48,198.04,48.936L203.764,48.936L203.764,59.7L191.524,59.7L191.524,51.06L189.976,51.492L188.572,47.46Q191.74,46.884,193.99,46.254000000000005Q196.24,45.623999999999995,197.788,44.832L190.156,44.832L190.156,40.980000000000004L201.748,40.980000000000004Q201.928,40.584,202.09,40.152Q202.252,39.72,202.36,39.216L191.416,39.216L191.416,29.064L203.764,29.064L203.764,39.072L207.112,39.647999999999996Q207.004,40.007999999999996,206.878,40.332Q206.752,40.656,206.644,40.980000000000004L210.352,40.980000000000004Q210.28,40.692,210.172,40.403999999999996Q210.064,40.116,209.992,39.864000000000004L213.448,39.288Q213.628,39.72,213.754,40.152Q213.88,40.584,214.024,40.980000000000004L219.316,40.980000000000004L219.316,44.832L211.036,44.832Q212.764,45.732,215.176,46.326Q217.588,46.92,220.972,47.424L219.388,51.348ZM217.984,39.216L205.636,39.216L205.636,29.064L217.984,29.064L217.984,39.216ZM199.804,32.664L195.376,32.664L195.376,35.544L199.804,35.544L199.804,32.664ZM214.132,32.664L209.56,32.664L209.56,35.544L214.132,35.544L214.132,32.664ZM199.804,52.32L195.484,52.32L195.484,56.136L199.804,56.136L199.804,52.32ZM214.06,52.32L209.524,52.32L209.524,56.136L214.06,56.136L214.06,52.32ZM248.332,39.036L243.688,39.036L243.688,35.652L248.332,35.652L248.332,34.284L244.48,34.284L244.48,30.972L248.332,30.972L248.332,28.560000000000002L252.076,28.704L252.076,30.972L257.728,30.972L257.728,35.652L259.132,35.652L259.132,39.036L257.728,39.036L257.728,43.751999999999995L252.076,43.751999999999995L252.076,45.120000000000005L257.62,45.120000000000005L257.62,48.396L252.076,48.396L252.076,49.692L258.48400000000004,49.692L258.48400000000004,53.04L252.076,53.04L252.076,55.38L248.332,55.38L248.332,53.04L243.22,53.04L243.22,49.692L248.332,49.692L248.332,48.396L244.48,48.396L244.48,45.120000000000005L248.332,45.120000000000005L248.332,43.751999999999995L244.444,43.751999999999995L244.444,40.476L248.332,40.476L248.332,39.036ZM248.584,56.172Q254.164,56.352,259.852,56.064L258.772,59.664Q255.964,59.772,253.462,59.772Q250.96,59.772,248.26,59.7Q245.596,59.628,243.418,58.998Q241.24,58.368,239.512,56.676Q238.936,57.612,238.252,58.602Q237.568,59.592,236.74,60.744L234.256,58.62L234.256,60.492L230.62,60.492L230.62,44.04Q230.26,44.688,229.9,45.336Q229.54,45.984,229.144,46.632000000000005L226.588,43.32Q227.344,41.988,228.172,40.242000000000004Q229,38.495999999999995,229.792,36.552Q230.584,34.608000000000004,231.232,32.556Q231.88,30.503999999999998,232.276,28.596L236.164,29.316000000000003Q235.768,31.08,235.3,32.754Q234.832,34.428,234.256,36.048L234.256,57.324Q235.12,56.28,235.822,55.29Q236.524,54.3,237.064,53.364Q235.588,50.628,234.58,46.272L237.856,45.156Q238.108,46.2,238.378,47.153999999999996Q238.648,48.108000000000004,239.008,49.044Q239.404,47.82,239.602,46.542Q239.8,45.263999999999996,239.908,43.788L235.516,43.788L235.516,40.116L239.332,34.14L236.308,34.14L236.308,30.432000000000002L243.4,30.432000000000002L243.4,34.176L239.62,40.116L243.436,40.116L243.436,43.932Q243.04,46.884,242.59,49.044Q242.14,51.204,241.312,53.148Q242.536,54.48,244.282,55.29Q246.028,56.1,248.584,56.172ZM252.076,35.652L254.056,35.652L254.056,34.284L252.076,34.284L252.076,35.652ZM254.056,39.036L252.076,39.036L252.076,40.476L254.056,40.476L254.056,39.036ZM292.828,53.148Q294.124,54.048,295.69,54.876Q297.256,55.704,299.164,56.46L297.4,60.168Q293.98,58.692,291.424,56.91Q288.868,55.128,286.996,52.896L286.996,56.28Q286.996,57.396,286.81600000000003,58.134Q286.63599999999997,58.872,286.204,59.358Q285.772,59.844,285.052,60.096Q284.332,60.348,283.252,60.456L280.73199999999997,60.708L279.472,56.964L281.704,56.676Q282.568,56.568,282.856,56.136Q283.144,55.704,283.144,54.876L283.144,54.156Q280.76800000000003,55.56,278.446,56.82Q276.124,58.08,273.28,59.484L271.65999999999997,56.82Q271.3,57.612,270.88599999999997,58.422Q270.472,59.232,269.96799999999996,60.096L265.86400000000003,58.116Q266.908,56.208,267.628,54.624Q268.348,53.04,268.798,51.258Q269.248,49.476,269.446,47.208Q269.644,44.94,269.644,41.664L269.644,30.648L281.776,30.648L281.236,28.308L286.024,28.092L286.56399999999996,30.648L297.472,30.648L297.472,34.5L286.996,34.5L286.996,36.012L295.78,36.012L295.78,40.44L298.156,40.44L298.156,43.608000000000004L295.78,43.608000000000004L295.78,48.072L295.204,48.072L296.824,50.16Q296.032,50.772,294.97,51.564Q293.908,52.356,292.828,53.148ZM273.856,34.5L273.856,40.44L283.144,40.44L283.144,39.251999999999995L275.368,39.251999999999995L275.368,36.012L283.144,36.012L283.144,34.5L273.856,34.5ZM286.996,39.251999999999995L286.996,40.44L291.856,40.44L291.856,39.251999999999995L286.996,39.251999999999995ZM271.98400000000004,56.028Q274.828,54.732,277.88800000000003,53.076Q277.49199999999996,52.644,276.97,52.176Q276.448,51.708,275.908,51.24Q275.368,50.772,274.846,50.34Q274.324,49.908,273.892,49.620000000000005L275.296,48.072L275.00800000000004,48.072L275.00800000000004,44.796L283.144,44.796L283.144,43.608000000000004L273.856,43.608000000000004Q273.856,45.768,273.748,47.513999999999996Q273.64,49.260000000000005,273.406,50.736000000000004Q273.172,52.212,272.83000000000004,53.508Q272.488,54.804,271.98400000000004,56.028ZM291.856,43.608000000000004L286.996,43.608000000000004L286.996,44.796L291.856,44.796L291.856,43.608000000000004ZM283.144,50.592L283.144,48.072L277.672,48.072Q278.428,48.684,279.22,49.385999999999996Q280.012,50.088,280.552,50.664L278.96799999999996,52.5Q279.976,51.924,280.966,51.366Q281.956,50.808,282.892,50.196L283.144,50.592ZM289.768,50.556Q290.668,49.944,291.568,49.314Q292.468,48.684,293.296,48.072L287.86,48.072Q288.256,48.72,288.724,49.332Q289.192,49.944,289.768,50.556ZM319.792,45.372L315.544,45.372L315.544,28.668L319.792,28.848L319.792,39.9Q320.476,38.568,321.142,37.074Q321.808,35.58,322.384,34.068Q322.96,32.556,323.41,31.061999999999998Q323.86,29.567999999999998,324.184,28.164L328.504,29.172Q328.324,29.892,328.144,30.648Q327.964,31.404,327.748,32.124L336.964,32.124L336.964,36.444L329.008,36.444Q329.584,36.948,330.394,37.704Q331.204,38.46,332.05,39.288Q332.896,40.116,333.724,40.944Q334.552,41.772,335.236,42.456L332.104,45.876000000000005Q331.384,44.94,330.556,43.95Q329.728,42.96,328.9,42.024Q328.072,41.088,327.316,40.296Q326.56,39.504000000000005,326.02,39L328.792,36.444L326.308,36.444Q324.652,40.836,322.564,44.436L319.792,42.564L319.792,45.372ZM312.736,44.688L308.56,44.688L308.56,30L312.736,30.18L312.736,44.688ZM337.72,55.92L337.72,59.988L306.004,59.988L306.004,55.92L309.316,55.92L309.316,46.308L334.372,46.308L334.372,55.92L337.72,55.92ZM313.564,55.92L316.516,55.92L316.516,50.34L313.564,50.34L313.564,55.92ZM323.32,50.34L320.44,50.34L320.44,55.92L323.32,55.92L323.32,50.34ZM330.16,50.34L327.172,50.34L327.172,55.92L330.16,55.92L330.16,50.34ZM350.716,36.516Q350.284,35.976,349.582,35.274Q348.88,34.572,348.142,33.852000000000004Q347.404,33.132,346.72,32.519999999999996Q346.036,31.908,345.604,31.584L347.944,28.524Q348.484,28.956,349.168,29.514Q349.852,30.072,350.554,30.666Q351.256,31.259999999999998,351.922,31.872Q352.588,32.484,353.128,32.952L353.128,30.108L365.188,30.108L365.188,51.204L361.84,51.204L361.84,34.14L356.44,34.14L356.44,51.312L353.128,51.312L353.128,33.132L350.716,36.516ZM375.052,29.208L375.052,55.92Q375.052,57.144,374.872,57.918Q374.692,58.692,374.26,59.178Q373.828,59.664,373.09,59.88Q372.352,60.096,371.236,60.204L369.184,60.384L367.996,56.388L369.94,56.172Q370.804,56.064,371.092,55.794Q371.38,55.524,371.38,54.516L371.38,29.064L375.052,29.208ZM370.048,52.176L366.592,52.176L366.592,32.052L370.048,32.196L370.048,52.176ZM360.436,50.556Q361.12,51.168,361.966,51.942Q362.812,52.716,363.64,53.526Q364.468,54.336,365.224,55.092Q365.98,55.848,366.52,56.46L363.82,59.484Q362.704,58.224,361.48,56.856Q360.256,55.488,359.104,54.336Q358.168,55.956,356.71,57.378Q355.252,58.8,353.056,60.564L350.536,57.432Q352.732,55.92,354.118,54.624Q355.504,53.328,356.296,51.888Q357.088,50.448,357.358,48.72Q357.628,46.992000000000004,357.628,44.616L357.628,35.292L360.868,35.436L360.868,44.616Q360.868,48.18,360.436,50.556ZM349.672,44.724000000000004Q349.024,44.04,348.322,43.32Q347.62,42.6,346.918,41.934Q346.216,41.268,345.532,40.674Q344.848,40.08,344.272,39.647999999999996L346.792,36.408Q347.872,37.236000000000004,349.348,38.532Q350.824,39.828,352.192,41.196L349.672,44.724000000000004ZM351.76,47.424Q351.652,47.676,351.382,48.629999999999995Q351.112,49.584,350.77,50.879999999999995Q350.428,52.176,350.032,53.634Q349.636,55.092,349.294,56.388Q348.952,57.684,348.718,58.638Q348.484,59.592,348.412,59.844L344.596,58.584Q344.776,58.08,345.082,57.126Q345.388,56.172,345.748,54.984Q346.108,53.796,346.468,52.5Q346.828,51.204,347.134,49.998000000000005Q347.44,48.792,347.674,47.784Q347.908,46.775999999999996,348.016,46.2L350.176,46.92L351.76,47.424ZM402.628,49.512L402.628,55.848Q402.628,57.18,402.43,58.044Q402.232,58.908,401.728,59.412Q401.224,59.916,400.342,60.168Q399.46,60.42,398.092,60.528L395.428,60.744L394.132,56.46L396.256,56.244Q397.444,56.136,397.786,55.812Q398.128,55.488,398.128,54.768L398.128,49.763999999999996Q396.832,49.836,395.518,49.908Q394.204,49.980000000000004,392.908,50.052L395.428,53.256Q394.384,54.12,393.232,55.002Q392.08,55.884,390.892,56.748Q389.704,57.612,388.498,58.404Q387.292,59.196,386.176,59.844L383.656,56.28Q384.628,55.704,385.762,54.966Q386.896,54.228,388.066,53.418Q389.236,52.608,390.334,51.762Q391.432,50.916,392.368,50.088Q391.72,50.123999999999995,391.108,50.16Q390.496,50.196,389.884,50.232Q389.272,50.268,388.642,50.304Q388.012,50.34,387.328,50.412L386.536,45.84Q387.04,45.804,387.436,45.75Q387.832,45.696,388.228,45.623999999999995Q388.624,45.552,389.038,45.480000000000004Q389.452,45.408,389.992,45.3Q391.252,44.94,392.872,44.111999999999995Q394.492,43.284,396.328,42.132000000000005Q394.96,42.204,393.592,42.222Q392.224,42.239999999999995,391.18,42.312Q390.244,42.384,389.362,42.42Q388.48,42.456,387.868,42.528L387.04,38.532Q388.3,38.352000000000004,388.93,38.135999999999996Q389.56,37.92,389.92,37.739999999999995Q390.568,37.416,391.9,36.444Q393.232,35.472,394.744,34.212Q392.404,34.356,390.37,34.428Q388.336,34.5,386.824,34.536L386.392,30.36Q388.12,30.323999999999998,390.262,30.252000000000002Q392.404,30.18,394.762,30.072Q397.12,29.964,399.568,29.82Q402.016,29.676000000000002,404.374,29.514Q406.732,29.352,408.892,29.172Q411.052,28.992,412.78,28.776L413.464,32.952Q412.204,33.096000000000004,410.638,33.222Q409.072,33.348,407.272,33.492000000000004L410.08,36.876000000000005Q408.604,38.244,406.966,39.558Q405.328,40.872,403.708,42.024Q402.088,43.176,400.594,44.111999999999995Q399.1,45.048,397.912,45.623999999999995Q399.964,45.552,402.178,45.426Q404.392,45.3,406.624,45.228Q406.048,44.616,405.562,44.129999999999995Q405.076,43.644,404.68,43.284L407.92,40.548Q408.676,41.268,409.648,42.275999999999996Q410.62,43.284,411.628,44.346000000000004Q412.636,45.408,413.59,46.452Q414.544,47.495999999999995,415.264,48.324L412.276,51.636Q411.88,51.132,411.358,50.501999999999995Q410.836,49.872,410.224,49.188L402.628,49.512ZM395.5,38.352000000000004Q396.796,38.28,398.542,38.226Q400.288,38.172,401.908,38.1Q403.312,36.984,404.644,35.814Q405.976,34.644,407.2,33.492000000000004Q405.292,33.635999999999996,403.258,33.762Q401.224,33.888,399.136,33.996L399.928,34.932Q397.192,37.452,395.5,38.352000000000004ZM406.48,49.872Q407.452,50.412,408.694,51.168Q409.936,51.924,411.268,52.752Q412.6,53.58,413.86,54.408Q415.12,55.236,416.128,55.92L414.004,59.988Q412.96,59.196,411.628,58.278Q410.296,57.36,408.91,56.478Q407.524,55.596,406.264,54.84Q405.004,54.084,404.14,53.58L406.48,49.872ZM455.08,52.896Q455.008,54.12,454.936,55.002Q454.864,55.884,454.72,56.604Q454.54,57.576,454.252,58.278Q453.964,58.98,453.46,59.43Q452.956,59.88,452.164,60.096Q451.372,60.312,450.148,60.312L448.096,60.312Q447.052,60.312,446.296,60.114Q445.54,59.916,445.036,59.43Q444.532,58.944,444.28,58.116Q444.028,57.288,444.028,55.992L444.028,45.588L442.084,45.696Q442.084,46.092,442.066,46.506Q442.048,46.92,442.048,47.28Q441.94,49.836,441.634,51.834Q441.328,53.832,440.536,55.524Q439.744,57.216,438.34,58.674Q436.936,60.132,434.632,61.572L432.004,58.152Q433.336,57.36,434.272,56.64Q433.3,56.82,431.806,57.162Q430.312,57.504,428.746,57.846Q427.18,58.188,425.758,58.53Q424.336,58.872,423.508,59.052L422.752,54.444Q423.292,54.372,424.21,54.228Q425.128,54.084,426.208,53.868Q427.288,53.652,428.458,53.4Q429.628,53.148,430.726,52.896Q431.824,52.644,432.76,52.41Q433.696,52.176,434.308,51.996L434.524,54.336L434.74,56.244Q435.712,55.416,436.288,54.552Q436.864,53.688,437.188,52.59Q437.512,51.492,437.656,50.106Q437.8,48.72,437.908,46.884Q437.908,46.704,437.926,46.47Q437.944,46.236000000000004,437.944,45.948Q437.08,46.019999999999996,436.306,46.092Q435.532,46.164,435.028,46.236000000000004L433.84,42.312Q434.416,42.132000000000005,434.704,41.844Q434.992,41.556,435.28,41.376000000000005Q435.532,41.16,436,40.620000000000005Q436.468,40.08,437.026,39.342Q437.584,38.604,438.178,37.722Q438.772,36.84,439.348,35.976L435.352,35.976L435.784,36.192Q435.136,37.596000000000004,434.29,39.198Q433.444,40.8,432.634,42.239999999999995Q431.824,43.68,431.104,44.796Q430.384,45.912,429.988,46.379999999999995Q430.888,46.2,432.148,46.019999999999996Q433.408,45.84,434.236,45.66L434.272,49.944Q433.984,49.980000000000004,433.102,50.141999999999996Q432.22,50.304,431.104,50.484Q429.988,50.664,428.8,50.861999999999995Q427.612,51.06,426.712,51.168Q426.172,51.24,425.632,51.348Q425.092,51.456,424.696,51.528L423.652,47.388000000000005Q423.976,47.208,424.534,46.848Q425.092,46.488,425.416,45.948Q425.776,45.336,426.424,44.274Q427.072,43.212,427.864,41.879999999999995Q427.288,41.952,426.748,41.988Q426.208,42.024,425.776,42.06Q424.552,42.168,423.904,42.348L422.968,38.135999999999996Q423.256,38.028,423.526,37.83Q423.796,37.632000000000005,424.012,37.344Q424.3,36.948,424.84,35.994Q425.38,35.04,426.01,33.78Q426.64,32.519999999999996,427.288,31.098Q427.936,29.676000000000002,428.44,28.344L432.508,29.532Q432.04,30.612000000000002,431.41,31.908Q430.78,33.204,430.132,34.391999999999996Q429.484,35.58,428.89,36.534Q428.296,37.488,427.936,37.884Q428.44,37.812,429.07,37.794Q429.7,37.775999999999996,430.348,37.704Q430.852,36.804,431.284,35.958Q431.716,35.111999999999995,432.112,34.32L434.632,35.616L434.632,31.8L441.508,31.8L440.716,28.344L445.108,28.128L445.864,31.8L453.784,31.8L453.784,35.976L444.172,35.976Q443.596,36.876000000000005,442.966,37.794Q442.336,38.712,441.76,39.522Q441.184,40.332,440.698,40.944Q440.212,41.556,439.888,41.808L447.232,41.519999999999996Q446.656,40.692,446.134,39.989999999999995Q445.612,39.288,445.216,38.784L448.384,36.623999999999995Q449.032,37.344,449.842,38.388000000000005Q450.652,39.432,451.498,40.566Q452.344,41.7,453.1,42.816Q453.856,43.932,454.396,44.796L451.192,47.568Q450.904,47.064,450.544,46.488Q450.184,45.912,449.788,45.3Q449.428,45.336,448.978,45.354Q448.528,45.372,448.024,45.372L448.024,55.236Q448.024,55.992,448.168,56.154Q448.312,56.316,448.924,56.316L449.68,56.316Q450.472,56.316,450.742,56.1Q451.012,55.884,451.192,55.056Q451.336,54.3,451.39,53.526Q451.444,52.752,451.48,51.672L455.08,52.896Z" fill="#00F2FF" fill-opacity="1"/></g></g></svg>